<svg xmlns="http://www.w3.org/2000/svg" id="Warstwa_1" data-name="Warstwa 1" viewBox="0 0 642.24 100.78"><defs><style>      .cls-1, .cls-2 {        fill: #fff;        stroke-width: 0px;      }      .cls-2 {        fill-rule: evenodd;      }    </style></defs><g id="Logo"><path class="cls-1" d="M274.03,23.39c-.76.42-1.56.74-2.41.94-.84.2-1.7.3-2.56.3-1.04,0-1.99-.17-2.85-.51s-1.61-.81-2.24-1.42c-.63-.61-1.12-1.35-1.47-2.2-.35-.86-.52-1.8-.52-2.84s.18-2,.55-2.86c.37-.86.88-1.59,1.53-2.19.65-.61,1.41-1.08,2.27-1.41.86-.34,1.79-.51,2.79-.51.87,0,1.71.13,2.52.39.81.26,1.53.71,2.16,1.35l-1.18,1.24c-.45-.49-1-.86-1.64-1.12-.64-.26-1.3-.39-1.98-.39-.76,0-1.47.14-2.12.41-.65.27-1.21.66-1.7,1.14-.48.49-.86,1.07-1.12,1.74-.27.67-.4,1.41-.4,2.21s.13,1.52.4,2.19.64,1.26,1.12,1.75c.48.49,1.06.88,1.73,1.15.67.28,1.42.41,2.23.41.54,0,1.1-.07,1.69-.2.59-.13,1.12-.32,1.61-.57v-4.07h-3.05v-1.46h4.63v6.52Z"></path><polygon class="cls-1" points="279.2 11.03 287.54 11.03 287.54 12.49 280.77 12.49 280.77 16.65 287.09 16.65 287.09 18.11 280.77 18.11 280.77 22.83 287.87 22.83 287.87 24.29 279.2 24.29 279.2 11.03"></polygon><polygon class="cls-1" points="292.18 11.03 294.17 11.03 301.85 22.04 301.89 22.04 301.89 11.03 303.46 11.03 303.46 24.29 301.48 24.29 293.8 13.27 293.76 13.27 293.76 24.29 292.18 24.29 292.18 11.03"></polygon><path class="cls-1" d="M317.93,13.76c-.4-.54-.89-.94-1.48-1.21-.59-.27-1.2-.4-1.84-.4-.74,0-1.41.15-2.03.45-.62.3-1.15.7-1.6,1.21-.45.51-.8,1.09-1.05,1.76-.25.67-.37,1.36-.37,2.09,0,.77.12,1.5.37,2.16.25.67.6,1.25,1.04,1.74.44.49.97.88,1.59,1.17.62.29,1.3.43,2.05.43.81,0,1.54-.16,2.17-.48.64-.32,1.19-.78,1.67-1.38l1.18.99c-.6.8-1.32,1.39-2.16,1.76-.84.37-1.8.56-2.86.56-.95,0-1.84-.18-2.66-.52-.82-.35-1.54-.83-2.15-1.45-.61-.62-1.08-1.35-1.42-2.2-.34-.85-.52-1.78-.52-2.79s.17-1.89.5-2.74c.33-.85.8-1.59,1.4-2.21.6-.62,1.31-1.12,2.14-1.48.82-.36,1.73-.54,2.72-.54.9,0,1.76.16,2.6.49.83.33,1.53.86,2.09,1.59l-1.37.99Z"></path><path class="cls-1" d="M329.44,20.86c0,.45-.07.9-.2,1.34-.13.44-.34.85-.64,1.21-.29.36-.68.66-1.16.88-.48.22-1.08.34-1.79.34-.94,0-1.72-.24-2.34-.71-.62-.47-1.02-1.19-1.2-2.14l1.57-.32c.1.52.32.94.65,1.25.33.31.78.46,1.34.46.45,0,.82-.08,1.11-.24.29-.16.51-.37.67-.64.16-.26.27-.57.33-.91.06-.34.09-.7.09-1.06v-9.29h1.57v9.84Z"></path><path class="cls-1" d="M338.92,11.03h1.48l5.64,13.27h-1.84l-1.35-3.26h-6.63l-1.37,3.26h-1.78l5.85-13.27ZM339.63,13.05h-.04l-2.75,6.52h5.42l-2.62-6.52Z"></path><path class="cls-1" d="M356.76,11.03h3.39c.64,0,1.27.04,1.9.11.63.08,1.2.24,1.7.49.5.25.91.62,1.22,1.1.31.48.47,1.13.47,1.96,0,.97-.29,1.76-.88,2.36-.59.6-1.4.98-2.44,1.14l3.77,6.11h-1.93l-3.6-5.96h-2.02v5.96h-1.57v-13.27ZM358.33,16.87h1.41c.44,0,.89-.01,1.36-.04.47-.03.9-.11,1.29-.24.39-.14.72-.35.97-.65.26-.29.38-.72.38-1.26,0-.47-.09-.86-.28-1.14s-.43-.51-.74-.67c-.31-.16-.65-.26-1.03-.31-.38-.05-.77-.08-1.15-.08h-2.21v4.38Z"></path><polygon class="cls-1" points="370.08 11.03 378.42 11.03 378.42 12.49 371.65 12.49 371.65 16.65 377.97 16.65 377.97 18.11 371.65 18.11 371.65 22.83 378.75 22.83 378.75 24.29 370.08 24.29 370.08 11.03"></polygon><polygon class="cls-1" points="383.06 11.03 384.64 11.03 384.64 16.76 384.86 16.76 390.9 11.03 393.16 11.03 386.61 17.08 393.48 24.29 391.18 24.29 384.86 17.55 384.64 17.55 384.64 24.29 383.06 24.29 383.06 11.03"></polygon><polygon class="cls-1" points="396.74 11.03 398.32 11.03 398.32 22.83 404.39 22.83 404.39 24.29 396.74 24.29 396.74 11.03"></polygon><path class="cls-1" d="M412.3,11.03h1.48l5.64,13.27h-1.84l-1.35-3.26h-6.63l-1.37,3.26h-1.78l5.85-13.27ZM413.01,13.05h-.04l-2.75,6.52h5.42l-2.62-6.52Z"></path><polygon class="cls-1" points="423.05 11.03 425.39 11.03 429.89 21.43 429.93 21.43 434.46 11.03 436.75 11.03 436.75 24.29 435.18 24.29 435.18 13.16 435.14 13.16 430.38 24.29 429.42 24.29 424.66 13.16 424.63 13.16 424.63 24.29 423.05 24.29 423.05 11.03"></polygon><path class="cls-1" d="M448.09,24.63c-1.01,0-1.94-.18-2.78-.52-.84-.35-1.57-.83-2.19-1.45-.62-.62-1.1-1.36-1.44-2.21-.34-.86-.52-1.78-.52-2.78s.17-1.93.52-2.78c.34-.86.82-1.59,1.44-2.21.62-.62,1.35-1.1,2.19-1.45.84-.35,1.77-.52,2.78-.52s1.94.18,2.78.52c.84.35,1.57.83,2.19,1.45.62.62,1.1,1.36,1.44,2.21.34.86.52,1.78.52,2.78s-.17,1.93-.52,2.78c-.34.86-.82,1.59-1.44,2.21-.62.62-1.35,1.1-2.19,1.45-.84.35-1.77.52-2.78.52M448.09,23.17c.77,0,1.48-.14,2.13-.43s1.2-.68,1.66-1.18c.46-.5.82-1.08,1.08-1.75.26-.67.38-1.38.38-2.15s-.13-1.48-.38-2.15c-.26-.67-.62-1.25-1.08-1.75-.46-.5-1.02-.89-1.66-1.18-.64-.29-1.35-.43-2.13-.43s-1.48.14-2.13.43c-.64.29-1.2.68-1.66,1.18-.46.5-.82,1.08-1.08,1.75-.26.67-.38,1.38-.38,2.15s.13,1.48.38,2.15c.26.67.62,1.25,1.08,1.75.46.5,1.01.89,1.66,1.18.64.29,1.35.43,2.13.43"></path><polygon class="cls-1" points="457.89 11.03 459.63 11.03 462.65 22.04 462.68 22.04 465.94 11.03 467.71 11.03 470.95 22.04 470.98 22.04 474.06 11.03 475.71 11.03 471.81 24.29 470.1 24.29 466.82 13.05 466.79 13.05 463.49 24.29 461.77 24.29 457.89 11.03"></polygon><path class="cls-1" d="M483.2,11.03h1.48l5.64,13.27h-1.84l-1.35-3.26h-6.63l-1.37,3.26h-1.78l5.85-13.27ZM483.91,13.05h-.04l-2.75,6.52h5.42l-2.62-6.52Z"></path><path class="cls-1" d="M251.99,11.03h1.48l5.64,13.27h-1.84l-1.35-3.26h-6.63l-1.37,3.26h-1.78l5.85-13.27ZM252.7,13.05h-.04l-2.75,6.52h5.42l-2.62-6.52Z"></path><path class="cls-1" d="M146.43,29.29c5.2.09,9.61,1.91,13.34,5.46,3.72-3.55,8.23-5.37,13.34-5.46h3.81c4.16,0,7.71,1.47,10.74,4.42,2.94,3.03,4.42,6.58,4.42,10.74v43.53c0,1.17-.95,2.12-2.12,2.12h-7.19c-1.17,0-2.12-.95-2.12-2.12v-43.53c0-1.04-.35-1.91-1.04-2.68-.78-.78-1.65-1.13-2.68-1.13h-3.81c-2.17,0-3.9.78-5.37,2.25-1.47,1.47-2.25,3.29-2.25,5.37v39.71c0,1.17-.95,2.12-2.12,2.12h-7.19c-1.17,0-2.12-.95-2.12-2.12v-39.71c0-2.08-.69-3.9-2.17-5.37-1.47-1.47-3.29-2.25-5.46-2.25h-3.72c-1.13,0-1.99.35-2.69,1.13-.78.78-1.13,1.65-1.13,2.68v43.53c0,1.17-.95,2.12-2.12,2.12h-7.19c-1.17,0-2.12-.95-2.12-2.12v-43.53c0-4.16,1.47-7.71,4.5-10.74s6.5-4.42,10.74-4.42h3.72Z"></path><path class="cls-1" d="M217.58,39.23c.34-.09.7-.09,1.05,0,3.12.81,5.85,2.06,8.12,3.65,2.25,1.6,4.07,3.63,5.52,6.03.65,1.23,1.16,2.62,1.45,4.14.22,1.53.36,3.05.36,4.5v30.42c0,1.17-.95,2.12-2.12,2.12h-5.35c-1.17,0-2.12-.95-2.12-2.12v-5.35c0-1.17-.95-2.12-2.12-2.12h-8.47c-1.17,0-2.12.95-2.12,2.12v5.35c0,1.17-.95,2.12-2.12,2.12h-5.35c-1.17,0-2.12-.95-2.12-2.12v-30.42c0-1.45.15-2.98.44-4.5.22-1.53.73-2.91,1.38-4.14,1.31-2.18,2.91-4.07,4.87-5.59,2.42-1.87,5.36-3.2,8.7-4.08M212.8,52.83c-.65,1.38-1.02,2.91-1.02,4.72v11.32c0,1.17.95,2.12,2.12,2.12h8.47c1.17,0,2.12-.95,2.12-2.12v-11.32c0-2.11-.51-3.92-1.45-5.45-1.02-1.38-2.69-2.32-4.94-2.83-2.69.58-4.43,1.74-5.3,3.56"></path><path class="cls-1" d="M259.07,39.1c4.43,0,8.21,1.53,11.33,4.65,3.12,3.12,4.65,6.83,4.65,11.26s-1.53,8.06-4.58,11.19c2.98,3.12,4.5,6.83,4.58,11.11v10.67c0,1.17-.95,2.12-2.12,2.12h-5.35c-1.17,0-2.12-.95-2.12-2.12v-10.67c0-1.74-.58-3.27-1.82-4.5-1.23-1.23-2.76-1.82-4.58-1.82h-4.2c-1.17,0-2.12.95-2.12,2.12v14.87c0,1.17-.95,2.12-2.12,2.12h-5.35c-1.17,0-2.12-.95-2.12-2.12v-46.76c0-1.17.95-2.12,2.12-2.12h13.79ZM252.75,59.28c0,1.17.95,2.12,2.12,2.12h4.2c1.82,0,3.34-.65,4.58-1.89,1.23-1.23,1.82-2.69,1.82-4.5s-.58-3.27-1.82-4.5c-1.23-1.23-2.76-1.89-4.58-1.89h-4.2c-1.17,0-2.12.95-2.12,2.12v8.55Z"></path><path class="cls-1" d="M293.72,41.22v18.58h6.32c1.82,0,3.34-.65,4.58-1.89,1.23-1.23,1.82-2.69,1.82-4.5v-12.19c0-1.17.95-2.12,2.12-2.12h5.35c1.17,0,2.12.95,2.12,2.12v12.19c-.07,4.29-1.6,8.06-4.58,11.19,2.98,3.12,4.5,6.83,4.58,11.11v12.26c0,1.17-.95,2.12-2.12,2.12h-5.35c-1.17,0-2.12-.95-2.12-2.12v-12.26c0-1.74-.58-3.27-1.82-4.5-1.23-1.23-2.76-1.82-4.58-1.82h-6.32v18.58c0,1.17-.95,2.12-2.12,2.12h-5.35c-1.17,0-2.12-.95-2.12-2.12v-46.76c0-1.17.95-2.12,2.12-2.12h5.35c1.17,0,2.12.95,2.12,2.12"></path><path class="cls-1" d="M353.8,41.22v5.28c0,1.17-.95,2.12-2.12,2.12h-14.87c-1.17,0-2.12.95-2.12,2.12v6.95c0,1.17.95,2.12,2.12,2.12h14.87c1.17,0,2.12.95,2.12,2.12v5.35c0,1.17-.95,2.12-2.12,2.12h-14.87c-1.17,0-2.12.95-2.12,2.12v6.88c0,1.17.95,2.12,2.12,2.12h16.99v7.47c0,1.17-.95,2.12-2.12,2.12h-24.46c-1.17,0-2.12-.95-2.12-2.12v-46.76c0-1.17.95-2.12,2.12-2.12h24.46c1.17,0,2.12.95,2.12,2.12"></path><path class="cls-1" d="M394.76,41.22v5.28c0,1.17-.95,2.12-2.12,2.12h-9.07v39.36c0,1.17-.95,2.12-2.12,2.12h-5.28c-1.17,0-2.12-.95-2.12-2.12v-39.36h-9.07c-1.17,0-2.12-.95-2.12-2.12v-5.28c0-1.17.95-2.12,2.12-2.12h27.65c1.17,0,2.12.95,2.12,2.12"></path><path class="cls-1" d="M405.96,39.1h5.35c1.17,0,2.12.95,2.12,2.12v46.76c0,1.17-.95,2.12-2.12,2.12h-5.35c-1.17,0-2.12-.95-2.12-2.12v-46.76c0-1.17.95-2.12,2.12-2.12"></path><path class="cls-1" d="M427.23,43.75c3.12-3.12,6.83-4.65,11.19-4.65s8.21,1.53,11.33,4.65c3.12,3.12,4.65,6.83,4.65,11.26v32.97c0,1.17-.95,2.12-2.12,2.12h-5.35c-1.17,0-2.12-.95-2.12-2.12v-32.97c0-1.74-.58-3.27-1.82-4.5-1.23-1.23-2.76-1.89-4.58-1.89s-3.2.65-4.43,1.89c-1.23,1.23-1.89,2.76-1.89,4.5v32.97c0,1.17-.95,2.12-2.12,2.12h-5.35c-1.17,0-2.12-.95-2.12-2.12v-32.97c0-4.43,1.6-8.14,4.72-11.26"></path><path class="cls-1" d="M482.58,39.1c3.56,0,6.54,1.23,9.08,3.7,2.47,2.54,3.7,5.52,3.7,9.01v1.08c0,1.17-.95,2.12-2.12,2.12h-5.35c-1.17,0-2.12-.95-2.12-2.12v-1.08c0-.87-.29-1.6-.87-2.25-.65-.65-1.38-.94-2.32-.94h-3.2c-1.74,0-3.2.65-4.43,1.89-1.23,1.23-1.89,2.76-1.89,4.5v19.18c0,1.74.65,3.2,1.89,4.43,1.23,1.23,2.69,1.89,4.43,1.89h3.2c.94,0,1.67-.29,2.32-.94.58-.58.87-1.31.87-2.25v-5.8c0-1.17-.95-2.12-2.12-2.12h-2.15c-1.17,0-2.12-.95-2.12-2.12v-5.35c0-1.17.95-2.12,2.12-2.12h11.74c1.17,0,2.12.95,2.12,2.12v15.39c0,3.56-1.23,6.54-3.7,9.01-2.54,2.54-5.52,3.78-9.08,3.78h-3.2c-4.36,0-8.06-1.6-11.19-4.72-3.12-3.12-4.72-6.83-4.72-11.19v-19.18c0-4.43,1.6-8.14,4.72-11.26,3.12-3.12,6.83-4.65,11.19-4.65h3.2Z"></path><path class="cls-1" d="M524.11,29.29c5.2.09,9.61,1.91,13.34,5.46,3.72-3.55,8.23-5.37,13.34-5.46h3.81c4.16,0,7.71,1.47,10.74,4.42,2.94,3.03,4.42,6.58,4.42,10.74v43.53c0,1.17-.95,2.12-2.12,2.12h-7.19c-1.17,0-2.12-.95-2.12-2.12v-43.53c0-1.04-.35-1.91-1.04-2.68-.78-.78-1.65-1.13-2.69-1.13h-3.81c-2.17,0-3.9.78-5.37,2.25-1.47,1.47-2.25,3.29-2.25,5.37v39.71c0,1.17-.95,2.12-2.12,2.12h-7.19c-1.17,0-2.12-.95-2.12-2.12v-39.71c0-2.08-.69-3.9-2.17-5.37-1.47-1.47-3.29-2.25-5.46-2.25h-3.72c-1.13,0-1.99.35-2.69,1.13-.78.78-1.13,1.65-1.13,2.68v43.53c0,1.17-.95,2.12-2.12,2.12h-7.19c-1.17,0-2.12-.95-2.12-2.12v-43.53c0-4.16,1.47-7.71,4.5-10.74,2.94-2.94,6.5-4.42,10.74-4.42h3.72Z"></path><path class="cls-1" d="M582,39.1h5.35c1.17,0,2.12.95,2.12,2.12v46.76c0,1.17-.95,2.12-2.12,2.12h-5.35c-1.17,0-2.12-.95-2.12-2.12v-46.76c0-1.17.95-2.12,2.12-2.12"></path><path class="cls-1" d="M606.02,39.1c1.17,0,2.12.95,2.12,2.12v12.19c0,1.82.65,3.27,1.89,4.5,1.23,1.23,2.69,1.89,4.43,1.89s3.34-.65,4.58-1.89c1.23-1.23,1.82-2.69,1.82-4.5v-12.19c0-1.17.95-2.12,2.12-2.12h5.35c1.17,0,2.12.95,2.12,2.12v12.19c-.07,4.29-1.6,8.06-4.58,11.19,2.98,3.12,4.5,6.83,4.58,11.11v12.26c0,1.17-.95,2.12-2.12,2.12h-5.35c-1.17,0-2.12-.95-2.12-2.12v-12.26c0-1.74-.58-3.27-1.82-4.5-1.23-1.23-2.76-1.82-4.58-1.82s-3.2.58-4.43,1.82c-1.23,1.23-1.89,2.76-1.89,4.5v12.26c0,1.17-.95,2.12-2.12,2.12h-5.35c-1.17,0-2.12-.95-2.12-2.12v-12.26c.07-4.29,1.6-7.99,4.58-11.11-2.98-3.12-4.5-6.9-4.58-11.19v-12.19c0-1.17.95-2.12,2.12-2.12h5.35Z"></path><path class="cls-2" d="M40.13,50.52c0-2.72-1.08-5.33-3.01-7.26,0,0-5.65-5.62-10.67-10.58-3.96-3.92-10.68-2.28-12.37,3.03-1.48,4.67-2.28,9.64-2.28,14.8s.8,10.13,2.28,14.8c1.69,5.31,8.41,6.95,12.37,3.03,5.02-4.96,10.67-10.58,10.67-10.58,1.93-1.92,3.01-4.53,3.01-7.25"></path><path class="cls-2" d="M93.84,35.72c-1.69-5.31-8.41-6.95-12.37-3.03-5.02,4.96-10.67,10.58-10.67,10.58-4.01,4.01-4.01,10.5,0,14.51,0,0,5.65,5.62,10.67,10.58,3.96,3.92,10.68,2.28,12.37-3.03,1.48-4.67,2.28-9.64,2.28-14.79s-.8-10.13-2.28-14.8"></path><path class="cls-2" d="M53.96,92.43c5.17,0,10.16-.8,14.84-2.29,5.31-1.69,6.95-8.41,3.03-12.37-4.97-5.02-10.61-10.68-10.61-10.68-1.93-1.92-4.54-3.01-7.26-3.01s-5.33,1.08-7.26,3.01c0,0-5.63,5.66-10.61,10.68-3.92,3.96-2.29,10.68,3.03,12.37,4.68,1.49,9.67,2.29,14.84,2.29"></path><path class="cls-2" d="M53.96,36.71c2.72,0,5.33-1.08,7.26-3.01,0,0,5.63-5.65,10.6-10.68,3.92-3.96,2.29-10.68-3.03-12.37-4.68-1.49-9.66-2.29-14.84-2.29s-10.16.8-14.84,2.29c-5.31,1.69-6.95,8.41-3.03,12.37,4.97,5.02,10.6,10.68,10.6,10.68,1.92,1.92,4.54,3.01,7.26,3.01"></path></g></svg>